<svg xmlns="http://www.w3.org/2000/svg" width="24" height="24" viewBox="0 0 24 24"><path d="M17.49,7.52a1,1,0,0,1-2,0A1,1,0,0,1,17.49,7.52ZM12,14.8a2.8,2.8,0,0,1,0-5.6A2.8,2.8,0,0,1,12,14.8Zm0-7.11a4.31,4.31,0,0,0,0,8.62A4.31,4.31,0,0,0,12,7.69Zm0-2.58c2.24,0,2.51,0,3.39,0a3.39,3.39,0,0,1,2.53.92,3.39,3.39,0,0,1,.92,2.53c0,.88.05,1.15.05,3.39s0,2.51-.05,3.39a3.18,3.18,0,0,1-3.45,3.45c-.88,0-1.15.05-3.39.05s-2.51,0-3.39-.05a3.39,3.39,0,0,1-2.53-.92,3.37,3.37,0,0,1-.92-2.53c0-.88,0-1.15,0-3.39s0-2.51,0-3.39a3.39,3.39,0,0,1,.92-2.53,3.37,3.37,0,0,1,2.53-.92C9.49,5.12,9.76,5.11,12,5.11ZM12,3.6c-2.28,0-2.57,0-3.46,0A4.89,4.89,0,0,0,5,5,4.89,4.89,0,0,0,3.65,8.54c0,.89,0,1.18,0,3.46s0,2.57,0,3.46A4.89,4.89,0,0,0,5,19a4.89,4.89,0,0,0,3.53,1.36c.89,0,1.18,0,3.46,0s2.57,0,3.46,0A4.89,4.89,0,0,0,19,19a4.93,4.93,0,0,0,1.36-3.53c0-.89,0-1.18,0-3.46s0-2.57,0-3.46A4.89,4.89,0,0,0,19,5a4.93,4.93,0,0,0-3.53-1.36C14.57,3.61,14.28,3.6,12,3.6Z" fill="#aeaeae" fill-rule="evenodd"/></svg>