<svg xmlns="http://www.w3.org/2000/svg" width="24" height="24" viewBox="0 0 24 24"><path d="M5.05,9.58H8.29V19.2H5.05ZM6.68,4.8a2,2,0,0,1,1,.29,1.73,1.73,0,0,1,.69.78,1.65,1.65,0,0,1,.11,1A1.69,1.69,0,0,1,8,7.76a2,2,0,0,1-1,.48A2.09,2.09,0,0,1,6,8.14a1.86,1.86,0,0,1-.84-.64,1.63,1.63,0,0,1-.32-1,1.66,1.66,0,0,1,.55-1.22A1.94,1.94,0,0,1,6.68,4.8Z" fill="#aeaeae"/><path d="M10.32,9.58h3.1V10.9h0a3.45,3.45,0,0,1,3.06-1.55c3.27,0,3.88,2,3.88,4.58V19.2H17.17V14.52c0-1.11,0-2.55-1.68-2.55s-1.93,1.22-1.93,2.47V19.2H10.33V9.58Z" fill="#aeaeae"/></svg>