<svg width="156" height="32" viewBox="0 0 156 32" fill="none" xmlns="http://www.w3.org/2000/svg"><path d="M70.31 16.11c0 5.89-3.593 8.676-8.09 8.676h-2.75v-3.535h2.535c2.713 0 4.521-1.464 4.521-5.142 0-3.642-1.71-5.463-4.601-5.463-2.785 0-4.775 1.714-4.775 5.392V30.82H53.4V7.575h3.749v2h.535c1.25-1.679 3.097-2.429 5.025-2.429 4.141 0 7.6 3 7.6 8.963zm-24.634-1.537l-2.5-.25c-1.963-.178-2.998-.714-2.998-1.856 0-1.357 1.32-2.143 3.213-2.143 1.963 0 3.213.929 3.32 2.25h3.605c-.142-3.357-2.748-5.428-6.89-5.428-4.176 0-6.997 2.214-6.997 5.464 0 2.713 1.714 4.463 5.605 4.856l2.535.25c1.535.143 2.57.464 2.57 1.928 0 1.321-.964 2.285-3.498 2.285-2.334 0-3.484-1.059-3.888-2.48h-3.9c.388 3.247 3.114 5.765 7.788 5.765 4.39 0 7.247-2.32 7.247-5.748 0-3.036-2-4.571-5.212-4.893zm39.152 4.877c-.588 1.35-1.993 2.372-3.987 2.372-2.748 0-4.783-1.785-4.783-5.642 0-3.678 1.892-5.713 4.819-5.713 2.606 0 4.106 1.571 4.248 3.928h-6.747v2.714h10.424v-1.786c0-4.963-3.284-8.177-7.96-8.177-4.356 0-8.533 2.964-8.533 9.034s4.177 9.035 8.532 9.035c3.984 0 6.825-2.455 7.707-5.765h-3.72zM25.738 7.146c-4.106 0-7.176 2.143-7.533 5.428h4.034c.286-1.214 1.392-2.107 3.499-2.107 2.713 0 3.605 1.429 3.605 3.178v5.892c-1.535 1.75-3.32 2.57-5.105 2.57-1.856 0-3.141-.892-3.141-2.498 0-1.536 1-2.5 2.927-2.5h2.999v-2.714h-3.106c-4.284 0-6.676 2.143-6.676 5.428 0 3.07 2.32 5.392 6.14 5.392 2.142 0 4.035-.857 5.427-1.893h.535v1.464h3.749V13.288c0-4.25-2.892-6.142-7.354-6.142zM.305 24.786h3.748V1.219H.305v23.567zM16.048 7.575h-4.57l-5.461 7.177v2.25l5.604 7.784h4.641l-6.568-8.927 6.354-8.284zm135.506 0l-3.07 6.82c-.75 1.643-1.463 3.25-1.678 4.32h-.536c-.214-1.07-.963-2.642-1.713-4.284l-3.07-6.856h-4.141l7.211 15.461-3.57 7.785h3.999l10.709-23.246h-4.141zm-15.037 0h-4.57l-5.462 7.177v2.25l5.605 7.784h4.641l-6.569-8.927 6.355-8.284zm-23.469 6.998l-2.499-.25c-1.964-.178-2.999-.714-2.999-1.856 0-1.357 1.321-2.143 3.213-2.143 1.963 0 3.213.929 3.32 2.25h3.605c-.142-3.357-2.748-5.428-6.889-5.428-4.177 0-6.997 2.214-6.997 5.464 0 2.713 1.713 4.463 5.604 4.856l2.535.25c1.535.143 2.57.464 2.57 1.928 0 1.321-.964 2.285-3.498 2.285-2.334 0-3.484-1.059-3.888-2.48h-3.901c.389 3.247 3.115 5.765 7.789 5.765 4.391 0 7.247-2.32 7.247-5.748 0-3.036-1.999-4.571-5.212-4.893zm7.725 10.213h3.749V1.219h-3.749v23.567zM96.055 9.575h-.535v-2H91.77v17.211h3.749v-8.998c0-3.071 1.418-4.857 4.212-4.857h2.373V7.146h-1.373c-2.593 0-3.694.978-4.677 2.429z" fill="#00A88E"/></svg>