<svg xmlns="http://www.w3.org/2000/svg" width="24" height="24" viewBox="0 0 24 24"><path d="M8.88,19.2a9.58,9.58,0,0,0,9.81-9.48c0-.14,0-.29,0-.43A6.9,6.9,0,0,0,20.4,7.56a6.82,6.82,0,0,1-2,.52,3.36,3.36,0,0,0,1.52-1.84,7.14,7.14,0,0,1-2.19.81,3.48,3.48,0,0,0-2-1,3.57,3.57,0,0,0-2.18.36A3.38,3.38,0,0,0,12.09,8a3.2,3.2,0,0,0-.21,2.13,10.12,10.12,0,0,1-3.94-1A9.82,9.82,0,0,1,4.77,6.61,3.23,3.23,0,0,0,4.39,9a3.37,3.37,0,0,0,1.45,2,3.57,3.57,0,0,1-1.57-.42v0a3.27,3.27,0,0,0,.78,2.11A3.52,3.52,0,0,0,7,14,3.57,3.57,0,0,1,5.48,14a3.33,3.33,0,0,0,1.23,1.66,3.61,3.61,0,0,0,2,.66,7.13,7.13,0,0,1-4.28,1.43,7.52,7.52,0,0,1-.82-.05A10,10,0,0,0,8.88,19.2Z" fill="#aeaeae"/></svg>