<svg xmlns="http://www.w3.org/2000/svg" width="24" height="24"><path d="M20.35 8.53a4.68 4.68 0 00-4.9-4.88H8.53A4.9 4.9 0 005 5a4.87 4.87 0 00-1.35 3.55v6.92a4.68 4.68 0 004.9 4.88h3.46c3.12-.08 3.42.18 5.5-.45 3.38-1.63 2.79-4 2.89-8 0-2.19-.01-2.48-.05-3.37zm-1.51 6.86c-.28 4-3 3.41-6.83 3.5-2.25 0-2.51 0-3.4-.05-1.61-.1-2.53-.52-3.15-1.84-.5-1.76-.28-2.08-.35-5 .08-3.8-.55-6.55 3.49-6.84.88 0 1.15 0 3.39-.06s2.51 0 3.4 0a3.4 3.4 0 012.52.91 3.4 3.4 0 01.92 2.53c.05.88.05 1.15.06 3.39s-.01 2.57-.05 3.46z"></path><path d="M12 7.69a4.31 4.31 0 000 8.62 4.31 4.31 0 000-8.62zm0 7.11a2.8 2.8 0 010-5.6 2.8 2.8 0 010 5.6zM16.48 6.5a1 1 0 000 2 1 1 0 000-2z"></path></svg>
