<svg width="156" height="32" viewBox="0 0 156 32"><path d="M70 15.89c0 5.89-3.6 8.68-8.1 8.68h-2.73V21c3.73.12 7 .16 7-5.14 0-3.64-1.71-5.46-4.6-5.46s-4.77 1.71-4.77 5.39V30.6h-3.7V7.36h3.75v2h.53a6.09 6.09 0 0 1 5-2.43c4.17 0 7.62 3 7.62 8.96Zm-24.63-1.54c-1.68-.22-5.68-.13-5.5-2.1 0-3 6.55-2.76 6.54.11H50c-.13-3.36-2.74-5.43-6.88-5.43s-7 2.21-7 5.46c0 2.71 1.72 4.46 5.61 4.86l2.53.25c1.54.14 2.57.46 2.57 1.93s-1 2.28-3.49 2.28c-2.34 0-3.49-1.06-3.89-2.48h-3.9c.42 7.37 15 8 15 0 .03-3.02-1.97-4.55-5.18-4.88Zm39.15 4.88a4.13 4.13 0 0 1-4 2.37c-2.75 0-4.79-1.78-4.79-5.64 0-3.68 1.89-5.71 4.82-5.71a3.91 3.91 0 0 1 4.25 3.93h-6.73v2.71H88.5V15.1C88.64 3.94 71.81 4.2 72 16c0 6.07 4.18 9 8.54 9a7.68 7.68 0 0 0 7.7-5.77ZM25.43 6.93c-4.1 0-7.17 2.14-7.53 5.43h4c.29-1.22 1.4-2.11 3.5-2.11 2.72 0 3.61 1.43 3.61 3.18v5.89c-2 2.73-7.92 4.07-8.25.07 0-3.13 3.68-2.43 5.93-2.5v-2.71h-3.08c-4.28 0-6.67 2.14-6.67 5.42 0 5.84 7.67 6.76 11.56 3.5h.5v1.47h3.75v-11.5c.04-4.25-2.85-6.14-7.32-6.14ZM0 24.57h3.75V1H0ZM15.74 7.36h-4.57l-5.46 7.17v2.25l5.61 7.79H16l-6.61-8.93Zm135.51 0-3.07 6.82a24.64 24.64 0 0 0-1.68 4.32h-.5c-.61-2.36-3.75-8.59-4.79-11.14H137l7.21 15.46-3.57 7.78h4l10.75-23.24Zm-15 0h-4.57l-5.46 7.17v2.25l5.61 7.79h4.64l-6.57-8.93Zm-23.47 7c-1.68-.22-5.68-.13-5.49-2.1 0-3 6.54-2.76 6.53.11h3.6c-.14-3.36-2.74-5.43-6.89-5.43s-7 2.21-7 5.46c0 2.71 1.71 4.46 5.6 4.86l2.54.25c1.53.14 2.57.46 2.57 1.93s-1 2.28-3.5 2.28c-2.34 0-3.49-1.06-3.89-2.48h-3.9c.42 7.37 15 8 15 0 .05-3.03-1.95-4.56-5.21-4.89Zm7.73 10.22h3.75V1h-3.75ZM95.75 9.36h-.54v-2h-3.74v17.21h3.74v-9c0-3.07 1.42-4.86 4.22-4.86h2.37V6.93h-1.37a4.89 4.89 0 0 0-4.68 2.43Z"></path></svg>
